
<svg width="192px" height="192px" viewBox="0 0 192 192" version="1.1" 
  xmlns="http://www.w3.org/2000/svg" 
  xmlns:xlink="http://www.w3.org/1999/xlink">
  <g id="Page-1" stroke="none" stroke-width="1" fill="none" fill-rule="evenodd">
    <g id="Workspace" transform="translate(-118.000000, -282.000000)">
      <g id="Logo" transform="translate(118.000000, 282.000000)">
        <circle id="Oval-2" fill="#FF9001" cx="96" cy="96" r="96"></circle>
        <path d="M86.412,98.312 C95.784,100.028 128.124,102.668 128.124,115.34 C128.124,122.864 111.888,140.684 76.38,142.664 C66.876,143.192 53.676,140.024 53.676,128.012 C53.676,123.788 53.016,123.128 68.328,102.932 C64.632,102.668 56.184,102.272 56.184,97.784 C56.184,92.108 74.664,91.844 78.624,90.656 C87.204,82.34 95.916,71.252 109.116,71.252 C108.192,73.496 107.268,75.212 96.312,88.016 C126.144,83.924 133.14,74.948 132.876,71.384 C132.744,68.48 129.048,63.86 113.736,64.916 C110.7,65.18 96.708,66.896 76.644,74.156 C77.436,74.552 78.492,75.08 78.492,76.136 C78.492,78.116 75.456,78.908 73.74,79.172 C65.556,80.492 63.048,81.68 55.392,84.188 C54.204,84.584 52.752,85.112 51.3,85.112 C49.056,85.112 48,83.792 48,81.548 C48,80.624 49.98,75.872 54.072,70.46 C56.844,66.764 60.672,61.748 65.16,60.032 C77.964,55.148 102.648,50 116.376,50 C139.08,50 144.492,58.976 144.492,66.104 C144.492,87.488 104.496,92.9 89.052,95.936 L86.412,98.312 Z M80.604,104.912 L73.212,112.964 C71.496,114.812 68.592,117.716 68.592,120.488 C68.592,126.164 79.02,127.748 83.244,127.748 C94.992,127.616 113.208,119.036 113.208,113.756 C113.208,106.892 86.016,104.912 80.604,104.912 Z" id="B" fill="#FFFFFF"></path>
      </g>
    </g>
  </g>
</svg>